<svg xmlns="http://www.w3.org/2000/svg" xmlns:xlink="http://www.w3.org/1999/xlink" width="500" zoomAndPan="magnify" viewBox="0 0 375 374.999991" height="500" preserveAspectRatio="xMidYMid meet" version="1.0"><defs><g/></defs><g fill="#af47d2" fill-opacity="1"><g transform="translate(17.462099, 321.891158)"><g><path d="M 207.40625 -4.875 C 208.488281 -3.570312 208.703125 -2.429688 208.046875 -1.453125 C 207.398438 -0.484375 206.210938 0 204.484375 0 L 148.5625 0 C 147.269531 0 146.296875 -0.320312 145.640625 -0.96875 L 69.890625 -94.609375 C 68.804688 -93.523438 66.367188 -90.867188 62.578125 -86.640625 C 58.785156 -82.410156 54.234375 -77.316406 48.921875 -71.359375 C 43.617188 -65.398438 38.148438 -59.222656 32.515625 -52.828125 C 26.878906 -46.429688 21.566406 -40.414062 16.578125 -34.78125 C 11.597656 -29.144531 7.585938 -24.59375 4.546875 -21.125 C 1.515625 -17.65625 0 -15.921875 0 -15.921875 L 0 -257.15625 C 0 -259.101562 1.191406 -260.078125 3.578125 -260.078125 L 46.484375 -260.078125 C 48.648438 -260.078125 49.734375 -259.101562 49.734375 -257.15625 L 49.734375 -138.8125 L 147.59375 -259.09375 C 148.238281 -259.75 149.210938 -260.078125 150.515625 -260.078125 L 203.515625 -260.078125 C 205.242188 -260.078125 206.429688 -259.535156 207.078125 -258.453125 C 207.734375 -257.367188 207.519531 -256.285156 206.4375 -255.203125 L 103.0625 -127.765625 Z M 207.40625 -4.875 "/></g></g></g><g fill="#af47d2" fill-opacity="1"><g transform="translate(181.563257, 321.891158)"><g><path d="M 135.5625 -211.640625 L 185.625 -211.640625 L 104.359375 -1.625 C 103.921875 -0.539062 102.941406 0 101.421875 0 C 99.910156 0 98.828125 -0.539062 98.171875 -1.625 L 0.328125 -256.171875 C -0.109375 -257.253906 -0.0546875 -258.175781 0.484375 -258.9375 C 1.023438 -259.695312 1.945312 -260.078125 3.25 -260.078125 L 47.46875 -260.078125 C 49.414062 -260.078125 50.5 -259.425781 50.71875 -258.125 L 101.421875 -116.390625 Z M 135.5625 -211.640625 "/></g></g></g></svg>